<?xml version="1.0" encoding="UTF-8"?>
<svg version="1.1" xmlns="http://www.w3.org/2000/svg" width="200" height="160">
<path d="M0 0 C3.0625 -0.25 3.0625 -0.25 6 0 C7 1 7 1 7 9 C37.03 9 67.06 9 98 9 C97.67 8.01 97.34 7.02 97 6 C97.9375 2.8125 97.9375 2.8125 99 0 C100.98 0 102.96 0 105 0 C106.87620422 3.16609462 107.09662822 5.35832401 107 9 C107.99 8.96519531 108.98 8.93039062 110 8.89453125 C125.39166807 8.51261367 125.39166807 8.51261367 132.3125 13.75 C137.19017369 20.25356493 137.41586418 26.09182272 137.29296875 33.96484375 C137.28872391 34.99815323 137.28447906 36.03146271 137.28010559 37.09608459 C137.26339394 40.37682822 137.22575511 43.65694392 137.1875 46.9375 C137.17244348 49.16991297 137.15875677 51.40233562 137.14648438 53.63476562 C137.1135151 59.09005581 137.06339087 64.54498302 137 70 C138.2058374 70.57572754 138.2058374 70.57572754 139.43603516 71.16308594 C152.67236063 77.60605907 161.39846581 85.4789789 166.8125 99.375 C171.05031219 112.31147933 169.63399951 124.82735567 164.01953125 137.15234375 C158.72598624 147.02642567 149.98841405 154.31905184 139.625 158.5 C127.63513062 162.01075914 112.12037361 162.0235357 101 156 C100.03602043 155.2327787 100.03602043 155.2327787 99.05256653 154.45005798 C94.43687378 152.25746953 90.05044098 152.59380896 85.00268555 152.63110352 C83.33837494 152.6254538 83.33837494 152.6254538 81.64044189 152.61968994 C79.23308341 152.61325824 76.82569954 152.61358676 74.41834068 152.61987495 C70.60561019 152.62898054 66.79337197 152.61876617 62.98066711 152.60325623 C53.50961706 152.56820893 44.03861226 152.56082737 34.56750488 152.56335449 C26.56661457 152.56521814 18.56609324 152.55130309 10.56525612 152.51487541 C6.81389333 152.50405672 3.06303776 152.51617836 -0.68830872 152.52870178 C-2.99704487 152.51979541 -5.30577691 152.50972035 -7.61450195 152.49829102 C-8.65321945 152.50803452 -9.69193695 152.51777802 -10.76213074 152.52781677 C-18.54674947 152.45106576 -23.92626539 151.12826141 -29.46864319 145.48756409 C-31.71033241 140.38226482 -31.54971933 135.71791331 -31.50170898 130.19897461 C-31.50711197 129.01619431 -31.51251495 127.833414 -31.51808167 126.61479187 C-31.52842215 123.38327188 -31.52089486 120.15242098 -31.50437045 116.92094493 C-31.49048061 113.53335742 -31.49698437 110.14579971 -31.50050354 106.75819397 C-31.50320221 101.07137472 -31.48975861 95.38476696 -31.46655273 89.69799805 C-31.43993218 83.12908388 -31.43820114 76.56052292 -31.4499411 69.99157327 C-31.46072976 63.66332298 -31.45452416 57.3352001 -31.44038582 51.00695992 C-31.43463669 48.31766297 -31.43470017 45.62845958 -31.43945122 42.9391613 C-31.44235829 39.18310042 -31.42587972 35.42761862 -31.40405273 31.67163086 C-31.40855438 30.55824341 -31.41305603 29.44485596 -31.41769409 28.29772949 C-31.40778946 27.27300034 -31.39788483 26.24827118 -31.38768005 25.19248962 C-31.38525016 24.30522155 -31.38282026 23.41795347 -31.38031673 22.50379848 C-30.74275837 18.30646103 -28.72121698 15.68223228 -25.6875 12.8125 C-20.38958045 9.23948449 -15.38483481 8.71729098 -9.125 8.875 C-8.09246094 8.88853516 -8.09246094 8.88853516 -7.0390625 8.90234375 C-5.35922162 8.92567487 -3.67956254 8.96153674 -2 9 C-2.04125 8.071875 -2.0825 7.14375 -2.125 6.1875 C-2 3 -2 3 0 0 Z " fill="#F6F6F7" transform="translate(31,0)"/>
<path d="M0 0 C3.0625 -0.25 3.0625 -0.25 6 0 C7 1 7 1 7 9 C37.03 9 67.06 9 98 9 C97.67 8.01 97.34 7.02 97 6 C97.9375 2.8125 97.9375 2.8125 99 0 C100.98 0 102.96 0 105 0 C106.87620422 3.16609462 107.09662822 5.35832401 107 9 C107.99 8.96519531 108.98 8.93039062 110 8.89453125 C125.39166807 8.51261367 125.39166807 8.51261367 132.3125 13.75 C137.19017369 20.25356493 137.41586418 26.09182272 137.29296875 33.96484375 C137.28872391 34.99815323 137.28447906 36.03146271 137.28010559 37.09608459 C137.26339394 40.37682822 137.22575511 43.65694392 137.1875 46.9375 C137.17244348 49.16991297 137.15875677 51.40233562 137.14648438 53.63476562 C137.1135151 59.09005581 137.06339087 64.54498302 137 70 C138.2058374 70.57572754 138.2058374 70.57572754 139.43603516 71.16308594 C152.67236063 77.60605907 161.39846581 85.4789789 166.8125 99.375 C171.05031219 112.31147933 169.63399951 124.82735567 164.01953125 137.15234375 C158.72598624 147.02642567 149.98841405 154.31905184 139.625 158.5 C127.63513062 162.01075914 112.12037361 162.0235357 101 156 C100.03602043 155.2327787 100.03602043 155.2327787 99.05256653 154.45005798 C94.43687378 152.25746953 90.05044098 152.59380896 85.00268555 152.63110352 C83.33837494 152.6254538 83.33837494 152.6254538 81.64044189 152.61968994 C79.23308341 152.61325824 76.82569954 152.61358676 74.41834068 152.61987495 C70.60561019 152.62898054 66.79337197 152.61876617 62.98066711 152.60325623 C53.50961706 152.56820893 44.03861226 152.56082737 34.56750488 152.56335449 C26.56661457 152.56521814 18.56609324 152.55130309 10.56525612 152.51487541 C6.81389333 152.50405672 3.06303776 152.51617836 -0.68830872 152.52870178 C-2.99704487 152.51979541 -5.30577691 152.50972035 -7.61450195 152.49829102 C-8.65321945 152.50803452 -9.69193695 152.51777802 -10.76213074 152.52781677 C-18.54674947 152.45106576 -23.92626539 151.12826141 -29.46864319 145.48756409 C-31.71033241 140.38226482 -31.54971933 135.71791331 -31.50170898 130.19897461 C-31.50711197 129.01619431 -31.51251495 127.833414 -31.51808167 126.61479187 C-31.52842215 123.38327188 -31.52089486 120.15242098 -31.50437045 116.92094493 C-31.49048061 113.53335742 -31.49698437 110.14579971 -31.50050354 106.75819397 C-31.50320221 101.07137472 -31.48975861 95.38476696 -31.46655273 89.69799805 C-31.43993218 83.12908388 -31.43820114 76.56052292 -31.4499411 69.99157327 C-31.46072976 63.66332298 -31.45452416 57.3352001 -31.44038582 51.00695992 C-31.43463669 48.31766297 -31.43470017 45.62845958 -31.43945122 42.9391613 C-31.44235829 39.18310042 -31.42587972 35.42761862 -31.40405273 31.67163086 C-31.40855438 30.55824341 -31.41305603 29.44485596 -31.41769409 28.29772949 C-31.40778946 27.27300034 -31.39788483 26.24827118 -31.38768005 25.19248962 C-31.38525016 24.30522155 -31.38282026 23.41795347 -31.38031673 22.50379848 C-30.74275837 18.30646103 -28.72121698 15.68223228 -25.6875 12.8125 C-20.38958045 9.23948449 -15.38483481 8.71729098 -9.125 8.875 C-8.09246094 8.88853516 -8.09246094 8.88853516 -7.0390625 8.90234375 C-5.35922162 8.92567487 -3.67956254 8.96153674 -2 9 C-2.04125 8.071875 -2.0825 7.14375 -2.125 6.1875 C-2 3 -2 3 0 0 Z M-29 41 C-29.0825 57.04625 -29.165 73.0925 -29.25 89.625 C-29.28641602 94.68666504 -29.32283203 99.74833008 -29.36035156 104.96337891 C-29.37373149 109.51114874 -29.37373149 109.51114874 -29.3817749 114.05892944 C-29.38790656 116.08036828 -29.40195293 118.10179272 -29.42230225 120.12313843 C-29.45162586 123.18993441 -29.45562266 126.25583852 -29.45410156 129.32275391 C-29.468494 130.21926477 -29.48288643 131.11577564 -29.497715 132.03945351 C-29.45491447 138.49547377 -27.6860847 141.88414175 -23.4375 146.8125 C-20.6530143 149.11272732 -17.86873908 149.12414547 -14.42524719 149.12025452 C-13.01810455 149.12231651 -13.01810455 149.12231651 -11.58253479 149.12442017 C-10.55538864 149.12082489 -9.52824249 149.11722961 -8.4699707 149.11352539 C-7.38688629 149.11367142 -6.30380188 149.11381744 -5.18789673 149.1139679 C-1.60050467 149.11327007 1.98683574 149.10548372 5.57421875 149.09765625 C8.0585782 149.09579161 10.54293802 149.09436792 13.02729797 149.09336853 C18.90271603 149.0899378 24.77811496 149.0820527 30.65352517 149.07201904 C37.99883149 149.05974734 45.3441389 149.05437462 52.68945312 149.04882812 C65.7929782 149.03809721 78.89648792 149.02121684 92 149 C91.59102982 148.46505417 91.18205963 147.93010834 90.76069641 147.37895203 C90.22260849 146.66954971 89.68452057 145.9601474 89.13012695 145.22924805 C88.59740677 144.52930222 88.06468658 143.82935638 87.51582336 143.10820007 C85.3762694 140.13251838 83.80617904 137.10466663 82.1875 133.8125 C81.60355469 132.64332031 81.01960938 131.47414063 80.41796875 130.26953125 C76.55751323 121.36815034 76.46221511 109.31151212 79.625 100.125 C80.36919532 98.39545896 81.16109966 96.68564086 82 95 C82.42410156 94.13761719 82.84820312 93.27523437 83.28515625 92.38671875 C89.53185622 80.91993525 99.43988267 74.1401918 111.89819336 70.43554688 C114.17407115 69.96392811 116.2238331 69.88664752 118.546875 69.90234375 C119.30838867 69.90484131 120.06990234 69.90733887 120.85449219 69.90991211 C122.28776855 69.92356812 122.28776855 69.92356812 123.75 69.9375 C126.8025 69.958125 129.855 69.97875 133 70 C133 60.43 133 50.86 133 41 C79.54 41 26.08 41 -29 41 Z " fill="#322F42" transform="translate(31,0)"/>
<path d="M0 0 C1.02420044 0.00374634 1.02420044 0.00374634 2.0690918 0.00756836 C2.92929932 0.01667236 3.78950684 0.02577637 4.67578125 0.03515625 C7.41890625 0.05578125 10.16203125 0.07640625 12.98828125 0.09765625 C13.48328125 8.51265625 13.48328125 8.51265625 13.98828125 17.09765625 C15.63828125 17.09765625 17.28828125 17.09765625 18.98828125 17.09765625 C23.02285406 13.06308344 20.63236649 5.79229234 20.98828125 0.09765625 C51.01828125 0.09765625 81.04828125 0.09765625 111.98828125 0.09765625 C111.98828125 5.70765625 111.98828125 11.31765625 111.98828125 17.09765625 C114.29828125 17.09765625 116.60828125 17.09765625 118.98828125 17.09765625 C119.31828125 11.48765625 119.64828125 5.87765625 119.98828125 0.09765625 C122.8643058 -0.01087298 125.73618957 -0.08989525 128.61328125 -0.15234375 C129.42152344 -0.18585937 130.22976562 -0.219375 131.0625 -0.25390625 C136.5590359 -0.34328082 139.66351979 0.38329656 143.98828125 4.09765625 C146.98828125 8.09765625 146.98828125 8.09765625 146.98828125 27.09765625 C93.52828125 27.09765625 40.06828125 27.09765625 -15.01171875 27.09765625 C-15.01171875 10.09765625 -15.01171875 10.09765625 -11.01171875 4.09765625 C-7.54462596 1.05081713 -4.59145985 -0.03452225 0 0 Z " fill="#E64949" transform="translate(17.01171875,11.90234375)"/>
<path d="M0 0 C0 2.64 0 5.28 0 8 C0.66 8 1.32 8 2 8 C2 5.36 2 2.72 2 0 C11.71324777 0.22733133 19.14180993 3.04149457 26.3125 9.6875 C31.50077516 15.28620667 35.27580617 21.33367682 35.3125 29.125 C35.209375 30.40375 35.10625 31.6825 35 33 C33.2984375 33.185625 33.2984375 33.185625 31.5625 33.375 C30.386875 33.58125 29.21125 33.7875 28 34 C27.505 34.99 27.505 34.99 27 36 C29.97 36 32.94 36 36 36 C35.56074826 45.07786939 32.5488242 53.4511758 26 60 C18.32177928 65.83724382 11.79324093 69.51543373 2 69 C2 66.36 2 63.72 2 61 C1.34 61 0.68 61 0 61 C0 63.97 0 66.94 0 70 C-9.8909739 69.52140449 -17.89662992 65.92167214 -25.17578125 59.14453125 C-30.91935062 52.39245505 -33.70773393 44.76798219 -34 36 C-31.36 35.67 -28.72 35.34 -26 35 C-26 34.67 -26 34.34 -26 34 C-29.96 33.505 -29.96 33.505 -34 33 C-34.53949913 24.18818081 -30.63814165 16.47124551 -25.140625 9.71484375 C-18.18953782 3.18024733 -9.5733106 -0.90314251 0 0 Z " fill="#FBFBFB" transform="translate(153,80)"/>
<path d="M0 0 C5.64052297 4.54695219 7.75382323 9.26146968 10 16 C10.66 16 11.32 16 12 16 C16.47094213 27.54993385 16.49230917 38.56497721 11.54296875 49.9609375 C5.71690123 61.43607808 -1.75109749 68.78652746 -13.8359375 73.37109375 C-16 74 -16 74 -19 74 C-19 74.66 -19 75.32 -19 76 C-29.53152848 79.09457235 -40.12488038 76.67057478 -49.625 71.75 C-59.99693923 65.58537298 -67.41579447 56.94007291 -70.5234375 45.08984375 C-72.3241902 33.41447171 -72.53567144 21.24877808 -66 11 C-49.11978044 -10.94733791 -22.92377521 -17.32265862 0 0 Z M-56.6015625 11.76171875 C-60.63443254 18.21656381 -63.85934904 24.26585861 -63 32 C-60.36 32.33 -57.72 32.66 -55 33 C-55 33.33 -55 33.66 -55 34 C-57.64 34.33 -60.28 34.66 -63 35 C-62.70773393 43.76798219 -59.91935062 51.39245505 -54.17578125 58.14453125 C-46.89662992 64.92167214 -38.8909739 68.52140449 -29 69 C-29 66.03 -29 63.06 -29 60 C-28.34 60 -27.68 60 -27 60 C-27 62.64 -27 65.28 -27 68 C-19.14883284 68.9059039 -13.64693174 66.03048393 -7 62 C-4.08209475 59.7495803 -4.08209475 59.7495803 -2 57 C-1.24976563 56.10474609 -1.24976563 56.10474609 -0.484375 55.19140625 C4.48174771 49.00786026 7.60826906 43.11025413 7 35 C4.03 35 1.06 35 -2 35 C-1.505 34.01 -1.505 34.01 -1 33 C1.32156597 32.59270772 3.6568787 32.25561323 6 32 C6.69498042 23.38224279 4.59902556 17.56461779 -0.76171875 10.765625 C-7.58408022 3.40356354 -15.14678549 -0.38681702 -25.1640625 -0.95703125 C-26.07285156 -0.97830078 -26.07285156 -0.97830078 -27 -1 C-27 1.64 -27 4.28 -27 7 C-27.66 7 -28.32 7 -29 7 C-29 4.36 -29 1.72 -29 -1 C-39.19213274 -2.42689858 -50.46283369 3.73774581 -56.6015625 11.76171875 Z " fill="#DF3D3E" transform="translate(182,81)"/>
<path d="M0 0 C0.99 0.495 0.99 0.495 2 1 C2 6.61 2 12.22 2 18 C52.49 18 102.98 18 155 18 C153 20 153 20 150.39568138 20.24609566 C149.28399904 20.24425207 148.1723167 20.24240849 147.02694702 20.24050903 C145.75366043 20.24325836 144.48037384 20.24600769 143.16850281 20.24884033 C141.7495413 20.24176156 140.33058074 20.23449193 138.91162109 20.22705078 C137.42366036 20.22648689 135.93569906 20.22680279 134.44773865 20.22793579 C130.40041707 20.22851117 126.3532133 20.21672695 122.30591917 20.20278788 C118.07916576 20.19031135 113.85240985 20.18911245 109.62564087 20.18673706 C101.61813113 20.18051322 93.61067581 20.16409021 85.60319006 20.14403808 C76.48845171 20.12170717 67.37371079 20.11069273 58.2589519 20.10064721 C39.50593705 20.07972473 20.7529729 20.04453124 2 20 C2.03804698 32.67416508 2.09739467 45.34803453 2.18390274 58.02196693 C2.22340392 63.9070713 2.2555796 69.79202544 2.27099609 75.67724609 C2.28614504 81.35732958 2.32055988 87.03700015 2.36830902 92.71689987 C2.38314089 94.8833698 2.39104205 97.04989868 2.39188385 99.21641922 C2.39424975 102.25231143 2.42130008 105.28705901 2.45410156 108.32275391 C2.44655602 109.66495499 2.44655602 109.66495499 2.43885803 111.03427124 C2.52986695 116.48215794 3.25720073 119.75732862 7 124 C11.56786919 128.06424236 16.87942896 127.40232654 22.6652832 127.34057617 C23.7389061 127.34101425 24.81252899 127.34145233 25.91868591 127.34190369 C29.46290348 127.33981578 33.00664644 127.31648392 36.55078125 127.29296875 C39.00985963 127.28737282 41.46894137 127.28310271 43.92802429 127.28010559 C50.3971583 127.26865666 56.86608994 127.23918874 63.33514404 127.20599365 C69.93759422 127.17529401 76.54007713 127.16160046 83.14257812 127.14648438 C96.09513838 127.11431936 109.04755842 127.06369964 122 127 C120.35 125.02 118.7 123.04 117 121 C117.66 120.34 118.32 119.68 119 119 C120.175625 120.546875 120.175625 120.546875 121.375 122.125 C127.77996564 129.58738921 137.47740613 134.00124958 147 136 C148.51395696 136.07818636 150.03093507 136.10789909 151.546875 136.09765625 C152.39121094 136.09443359 153.23554688 136.09121094 154.10546875 136.08789062 C154.97816406 136.07951172 155.85085937 136.07113281 156.75 136.0625 C157.63816406 136.05798828 158.52632812 136.05347656 159.44140625 136.04882812 C161.62767329 136.037074 163.81380179 136.02064249 166 136 C164 139 164 139 162.01977539 139.40405273 C161.22047607 139.41380127 160.42117676 139.4235498 159.59765625 139.43359375 C158.71207031 139.44479248 157.82648438 139.45599121 156.9140625 139.4675293 C155.97304687 139.45761963 155.03203125 139.44770996 154.0625 139.4375 C153.10988281 139.43210205 152.15726563 139.4267041 151.17578125 139.42114258 C143.50279317 139.25539241 136.24271064 138.37672921 130.05256653 133.45005798 C125.43687378 131.25746953 121.05044098 131.59380896 116.00268555 131.63110352 C114.33837494 131.6254538 114.33837494 131.6254538 112.64044189 131.61968994 C110.23308341 131.61325824 107.82569954 131.61358676 105.41834068 131.61987495 C101.60561019 131.62898054 97.79337197 131.61876617 93.98066711 131.60325623 C84.50961706 131.56820893 75.03861226 131.56082737 65.56750488 131.56335449 C57.56661457 131.56521814 49.56609324 131.55130309 41.56525612 131.51487541 C37.81389333 131.50405672 34.06303776 131.51617836 30.31169128 131.52870178 C28.00295513 131.51979541 25.69422309 131.50972035 23.38549805 131.49829102 C22.34678055 131.50803452 21.30806305 131.51777802 20.23786926 131.52781677 C12.45091339 131.45104272 7.07431867 130.12605711 1.52838135 124.48678589 C-0.70986 119.3805548 -0.52558959 114.72854427 -0.45410156 109.21142578 C-0.45468567 108.03036758 -0.45526978 106.84930939 -0.45587158 105.63246155 C-0.4535685 102.40743281 -0.43356099 99.18310565 -0.40557575 95.95821619 C-0.38050652 92.58300504 -0.37821578 89.2077789 -0.37347412 85.83248901 C-0.36106045 79.44705788 -0.32826099 73.06190192 -0.28807616 66.67659175 C-0.24330805 59.40456221 -0.2213588 52.13251926 -0.20129442 44.86038613 C-0.15952665 29.90677099 -0.08920629 14.95341306 0 0 Z " fill="#19152B" transform="translate(0,21)"/>
<path d="M0 0 C0.33 0 0.66 0 1 0 C1.33 8.58 1.66 17.16 2 26 C3.77375 26.804375 5.5475 27.60875 7.375 28.4375 C19.2780527 34.43113621 26.9894301 42.99578726 31.8125 55.375 C36.05031219 68.31147933 34.63399951 80.82735567 29.01953125 93.15234375 C23.94589393 102.61623051 15.4764002 110.04243485 5.5 114.0625 C1.65777618 115.09166709 0.45351927 114.72675963 -3 113 C-3 112.34 -3 111.68 -3 111 C-2.31035156 110.78085938 -1.62070313 110.56171875 -0.91015625 110.3359375 C11.35635403 106.19662127 19.16553204 100.54587843 25.1875 89 C25.80076676 87.67082769 26.40523751 86.33755475 27 85 C27.30035156 84.40960938 27.60070312 83.81921875 27.91015625 83.2109375 C32.16882763 73.9012838 30.48081417 62.61315491 28 53 C27.34 53 26.68 53 26 53 C23.96599058 50.26679984 22.25728356 47.83617157 21.25 44.5625 C18.2729037 38.45945259 11.16490486 33.56080663 5 31 C-7.70742877 26.76419041 -18.55728587 26.89975043 -31 32 C-34.27108723 33.71979889 -37.13283673 35.67359836 -40 38 C-40.62519531 38.50144531 -41.25039062 39.00289062 -41.89453125 39.51953125 C-47.82270895 44.8277688 -53.48504045 53.84467284 -54.16113281 61.92602539 C-54.39988917 74.27333824 -53.83859844 83.87886012 -48 95 C-48 95.66 -48 96.32 -48 97 C-51 96 -51 96 -52.5703125 93.234375 C-53.08335938 92.08453125 -53.59640625 90.9346875 -54.125 89.75 C-54.64320312 88.61046875 -55.16140625 87.4709375 -55.6953125 86.296875 C-59.68350617 76.21892454 -59.54016197 63.46641734 -55.25 53.515625 C-54.8375 52.68546875 -54.425 51.8553125 -54 51 C-53.5875 50.14921875 -53.175 49.2984375 -52.75 48.421875 C-46.53806274 36.91567302 -37.02643995 30.56287695 -25 26 C-22.26743374 25.20701999 -19.83837643 24.871957 -16.99609375 24.8671875 C-15.88524414 24.86525391 -15.88524414 24.86525391 -14.75195312 24.86328125 C-13.60629883 24.86908203 -13.60629883 24.86908203 -12.4375 24.875 C-11.66986328 24.87113281 -10.90222656 24.86726563 -10.11132812 24.86328125 C-6.82072861 24.869019 -4.14241093 24.95252969 -1 26 C-1.00523682 25.2479126 -1.01047363 24.4958252 -1.01586914 23.72094727 C-1.03657227 20.33480658 -1.04963877 16.94867916 -1.0625 13.5625 C-1.07087891 12.37849609 -1.07925781 11.19449219 -1.08789062 9.97460938 C-1.09111328 8.84990234 -1.09433594 7.72519531 -1.09765625 6.56640625 C-1.10289307 5.52427979 -1.10812988 4.48215332 -1.11352539 3.40844727 C-1 1 -1 1 0 0 Z " fill="#1E152B" transform="translate(166,44)"/>
<path d="M0 0 C6.21180416 5.49828612 11.04609091 13.92385943 11.7734375 22.1953125 C12.03443535 34.56402949 10.31638468 45.08360076 1.4375 54.375 C-7.62739436 62.59626368 -16.30357063 65.80240526 -28.55859375 65.65234375 C-40.56088989 64.54419937 -49.45238782 58.54646932 -57.0234375 49.5234375 C-63.06474174 41.09014477 -64.580234 31.55233996 -63.5625 21.375 C-60.88731089 10.28275247 -54.90591468 1.61343979 -45.3125 -4.625 C-30.13864419 -13.14155148 -13.48660352 -10.43081536 0 0 Z M-54.1640625 6.13671875 C-58.19693254 12.59156381 -61.42184904 18.64085861 -60.5625 26.375 C-57.9225 26.705 -55.2825 27.035 -52.5625 27.375 C-52.5625 27.705 -52.5625 28.035 -52.5625 28.375 C-55.2025 28.705 -57.8425 29.035 -60.5625 29.375 C-60.27023393 38.14298219 -57.48185062 45.76745505 -51.73828125 52.51953125 C-44.45912992 59.29667214 -36.4534739 62.89640449 -26.5625 63.375 C-26.5625 60.405 -26.5625 57.435 -26.5625 54.375 C-25.9025 54.375 -25.2425 54.375 -24.5625 54.375 C-24.5625 57.015 -24.5625 59.655 -24.5625 62.375 C-16.71133284 63.2809039 -11.20943174 60.40548393 -4.5625 56.375 C-1.64459475 54.1245803 -1.64459475 54.1245803 0.4375 51.375 C1.18773437 50.47974609 1.18773437 50.47974609 1.953125 49.56640625 C6.91924771 43.38286026 10.04576906 37.48525413 9.4375 29.375 C6.4675 29.375 3.4975 29.375 0.4375 29.375 C0.9325 28.385 0.9325 28.385 1.4375 27.375 C3.75906597 26.96770772 6.0943787 26.63061323 8.4375 26.375 C9.13248042 17.75724279 7.03652556 11.93961779 1.67578125 5.140625 C-5.14658022 -2.22143646 -12.70928549 -6.01181702 -22.7265625 -6.58203125 C-23.63535156 -6.60330078 -23.63535156 -6.60330078 -24.5625 -6.625 C-24.5625 -3.985 -24.5625 -1.345 -24.5625 1.375 C-25.2225 1.375 -25.8825 1.375 -26.5625 1.375 C-26.5625 -1.265 -26.5625 -3.905 -26.5625 -6.625 C-36.75463274 -8.05189858 -48.02533369 -1.88725419 -54.1640625 6.13671875 Z " fill="#2D2135" transform="translate(179.5625,86.625)"/>
<path d="M0 0 C12.73162017 0.27568469 23.74177158 4.69316737 32.75 13.76171875 C35.62998567 16.95324133 37.73336917 19.82011827 39 24 C39.66 24 40.32 24 41 24 C45.47094213 35.54993385 45.49230917 46.56497721 40.54296875 57.9609375 C34.82912599 69.21503793 27.40703302 76.88641119 15.421875 81.22265625 C10.30377953 82.8653998 5.44495374 84.34030961 0 84 C0 83.01 0 82.02 0 81 C0.99 80.82984375 1.98 80.6596875 3 80.484375 C15.22646711 78.78522183 15.22646711 78.78522183 24.625 71.6875 C25.07875 70.800625 25.5325 69.91375 26 69 C26.96139723 67.90086678 27.94262971 66.81893011 28.9375 65.75 C36.84667324 56.75872595 37.96864928 45.67012702 37.28271484 34.15039062 C36.44361984 27.76805142 32.8821761 22.3350305 28.921875 17.421875 C27 15 27 15 26.01171875 12.84375 C23.62972712 8.50282317 17.55663129 6.80752685 13.06298828 5.38818359 C8.73795731 4.13795529 4.3786188 3.04503035 0 2 C0 1.34 0 0.68 0 0 Z " fill="#DC4344" transform="translate(153,73)"/>
<path d="M0 0 C0.99 0.495 0.99 0.495 2 1 C2.65767819 12.49109945 1.18297526 22.03050138 -6.234375 31.15234375 C-14.54735429 39.85154553 -23.14456374 43.79758154 -35.125 44.3125 C-46.31394052 44.17549257 -55.19388072 39.74963952 -63.0078125 32.01171875 C-66.39203851 28.37401832 -68.311347 26.02978201 -69 21 C-65.39869932 22.20043356 -65.24787567 22.93657717 -63.4375 26.125 C-57.86037867 34.77298073 -49.8021289 38.76442674 -40 41 C-38.68 41.33 -37.36 41.66 -36 42 C-36 39.03 -36 36.06 -36 33 C-35.34 33 -34.68 33 -34 33 C-34 35.64 -34 38.28 -34 41 C-26.27674587 40.03278874 -20.59379139 38.07378795 -14 34 C-13.27683594 33.65453125 -12.55367187 33.3090625 -11.80859375 32.953125 C-9.40788417 31.68795624 -9.09481522 30.46333425 -8 28 C-7.360625 27.0925 -6.72125 26.185 -6.0625 25.25 C-2.61751577 19.82154 -0.7987971 14.39037679 0 8 C-2.97 8 -5.94 8 -9 8 C-9 7.34 -9 6.68 -9 6 C-6.03 6 -3.06 6 0 6 C0 4.02 0 2.04 0 0 Z " fill="#261E33" transform="translate(189,108)"/>
<path d="M0 0 C-0.33 0.66 -0.66 1.32 -1 2 C-2.97993067 2.64819159 -4.98562425 3.21842862 -7 3.75 C-13.22865256 5.59678867 -17.96709084 7.91632321 -23 12 C-23.93779297 12.75216797 -23.93779297 12.75216797 -24.89453125 13.51953125 C-30.82270895 18.8277688 -36.48504045 27.84467284 -37.16113281 35.92602539 C-37.39988917 48.27333824 -36.83859844 57.87886012 -31 69 C-31 69.66 -31 70.32 -31 71 C-34 70 -34 70 -35.5703125 67.234375 C-36.08335938 66.08453125 -36.59640625 64.9346875 -37.125 63.75 C-37.64320312 62.61046875 -38.16140625 61.4709375 -38.6953125 60.296875 C-42.68350617 50.21892454 -42.54016197 37.46641734 -38.25 27.515625 C-37.8375 26.68546875 -37.425 25.8553125 -37 25 C-36.5875 24.14921875 -36.175 23.2984375 -35.75 22.421875 C-29.26384507 10.40774712 -18.67863769 3.25568222 -5.7578125 -0.68359375 C-3.59237939 -1.07337171 -2.07544914 -0.66710865 0 0 Z " fill="#34283B" transform="translate(149,70)"/>
<path d="M0 0 C0.99 0.66 1.98 1.32 3 2 C2.3944345 9.87235154 -2.2977438 17.63797389 -8 23 C-13.89066001 27.84240083 -19.57782467 32.01191732 -27 34 C-30 33 -30 33 -32 32 C-32 31.34 -32 30.68 -32 30 C-31.31035156 29.78085938 -30.62070313 29.56171875 -29.91015625 29.3359375 C-17.54661265 25.16387752 -9.69312236 19.46208728 -3.75 7.75 C-3.16215379 6.50211595 -2.57872111 5.25214203 -2 4 C-1.33707076 2.66480449 -0.6713739 1.33096931 0 0 Z " fill="#4E2233" transform="translate(195,125)"/>
<path d="M0 0 C12.73191017 0.27569097 23.59564634 4.69896291 32.6796875 13.65625 C40.65073761 22.38078245 43.42347105 32.35454623 43 44 C42.01 44 41.02 44 40 44 C39.92523438 43.05640625 39.85046875 42.1128125 39.7734375 41.140625 C38.62545834 29.93094615 36.31375712 20.29855498 27.4375 12.5625 C19.29349647 6.66300347 9.78622289 3.82455003 0 2 C0 1.34 0 0.68 0 0 Z " fill="#FCE9E9" transform="translate(153,73)"/>
<path d="M0 0 C0.66 0 1.32 0 2 0 C2.01458252 0.55985596 2.02916504 1.11971191 2.04418945 1.6965332 C2.11871352 4.23588137 2.21535581 6.77392078 2.3125 9.3125 C2.33505859 10.19357422 2.35761719 11.07464844 2.38085938 11.98242188 C2.4340332 13.25375977 2.4340332 13.25375977 2.48828125 14.55078125 C2.51446533 15.33106689 2.54064941 16.11135254 2.56762695 16.9152832 C2.82294101 19.10702626 2.82294101 19.10702626 4.55151367 20.54760742 C5.02951416 21.02689697 5.50751465 21.50618652 6 22 C5.6875 25.6875 5.6875 25.6875 5 29 C2.69 29.33 0.38 29.66 -2 30 C-2.66 28.68 -3.32 27.36 -4 26 C-7.63 26 -11.26 26 -15 26 C-15 25.34 -15 24.68 -15 24 C-14.32453125 23.97421875 -13.6490625 23.9484375 -12.953125 23.921875 C-11.61507812 23.83679688 -11.61507812 23.83679688 -10.25 23.75 C-9.36828125 23.70359375 -8.4865625 23.6571875 -7.578125 23.609375 C-4.09397052 22.78584758 -3.00729825 21.99269922 -1 19 C-0.37915042 15.75444493 -0.30358616 12.54798434 -0.25 9.25 C-0.22035156 8.36183594 -0.19070312 7.47367187 -0.16015625 6.55859375 C-0.08963082 4.37230551 -0.03685363 2.18707232 0 0 Z " fill="#251F34" transform="translate(153,90)"/>
<path d="M0 0 C0.33 0 0.66 0 1 0 C0.42445726 10.3597693 -4.34730467 19.03754778 -12 26 C-19.99421721 32.18907139 -30.78918322 36.49808862 -41 36 C-41 35.01 -41 34.02 -41 33 C-40.03320312 32.84144531 -39.06640625 32.68289062 -38.0703125 32.51953125 C-26.72929646 30.53981733 -16.18580667 27.72197373 -9 18 C-6.77452124 14.09491462 -4.87221832 10.08337271 -3 6 C-2.00650478 3.99676081 -1.00829499 1.99583096 0 0 Z " fill="#FCE9E9" transform="translate(194,121)"/>
<path d="M0 0 C2.22855574 -0.0814222 4.45797655 -0.13938079 6.6875 -0.1875 C8.54955078 -0.23970703 8.54955078 -0.23970703 10.44921875 -0.29296875 C15.20179198 0.09915775 17.68203836 1.68203836 21 5 C21.22705078 6.87939453 21.22705078 6.87939453 21.1953125 9.1328125 C21.18886719 9.93847656 21.18242187 10.74414062 21.17578125 11.57421875 C21.15902344 12.41597656 21.14226562 13.25773437 21.125 14.125 C21.11597656 14.97449219 21.10695312 15.82398438 21.09765625 16.69921875 C21.07405647 18.79959884 21.03818483 20.89983444 21 23 C20.34 23 19.68 23 19 23 C18.67 17.06 18.34 11.12 18 5 C14.53287889 3.84429296 11.4585044 3.67164707 7.8125 3.4375 C6.54019531 3.35371094 5.26789063 3.26992188 3.95703125 3.18359375 C2.98121094 3.12300781 2.00539062 3.06242187 1 3 C0.67 2.01 0.34 1.02 0 0 Z " fill="#FBE6E7" transform="translate(140,14)"/>
<path d="M0 0 C9.9 0 19.8 0 30 0 C30.33 0.99 30.66 1.98 31 3 C20.77 3 10.54 3 0 3 C0 2.01 0 1.02 0 0 Z " fill="#484456" transform="translate(68,125)"/>
<path d="M0 0 C9.9 0 19.8 0 30 0 C30 0.99 30 1.98 30 3 C19.77 3 9.54 3 -1 3 C-0.67 2.01 -0.34 1.02 0 0 Z " fill="#494557" transform="translate(22,125)"/>
<path d="M0 0 C0.33 0 0.66 0 1 0 C1 2.64 1 5.28 1 8 C3.64 8 6.28 8 9 8 C9 8.99 9 9.98 9 11 C6.36 11 3.72 11 1 11 C1.99 15.62 2.98 20.24 4 25 C3.01 25 2.02 25 1 25 C-1.70644386 17.71837725 -2.91140067 10.77649661 -2 3 C-1.34 2.01 -0.68 1.02 0 0 Z " fill="#3C2F41" transform="translate(118,105)"/>
<path d="M0 0 C5.64526959 1.32829873 8.0882816 5.33011284 11 10 C15.22341388 17.72606552 15.22341388 17.72606552 14.6328125 21.09375 C14.42398438 21.7228125 14.21515625 22.351875 14 23 C13.65939189 24.66519519 13.32441604 26.33157466 13 28 C10.36 28 7.72 28 5 28 C5 27.67 5 27.34 5 27 C7.31 27 9.62 27 12 27 C10.9429518 16.22904335 7.79003532 9.49041858 0 2 C0 1.34 0 0.68 0 0 Z " fill="#2D2034" transform="translate(176,86)"/>
<path d="M0 0 C0.66 0.33 1.32 0.66 2 1 C0.49871368 5.12853738 -0.95762775 7.31504229 -4.8125 9.3125 C-8.16205232 10.80462959 -11.33281571 11.63328157 -15 12 C-15.66 10.68 -16.32 9.36 -17 8 C-15.91332031 7.63648438 -15.91332031 7.63648438 -14.8046875 7.265625 C-9.33085389 5.36802935 -4.62764053 3.50199824 0 0 Z " fill="#602735" transform="translate(180,147)"/>
<path d="M0 0 C0.66 0 1.32 0 2 0 C2.061875 1.19625 2.12375 2.3925 2.1875 3.625 C2.92204695 10.44116362 5.6022089 16.62829965 8 23 C8.67622178 24.99678956 9.34612039 26.99578297 10 29 C7 28 7 28 5.4296875 25.234375 C4.91664062 24.08453125 4.40359375 22.9346875 3.875 21.75 C3.09769531 20.04070312 3.09769531 20.04070312 2.3046875 18.296875 C0.4563886 13.62632329 -0.12917875 9.68840647 -0.0625 4.6875 C-0.05347656 3.80449219 -0.04445313 2.92148438 -0.03515625 2.01171875 C-0.02355469 1.34785156 -0.01195313 0.68398437 0 0 Z " fill="#2B2034" transform="translate(108,112)"/>
<path d="M0 0 C0.33 0 0.66 0 1 0 C2.41196354 16.03121675 1.70002528 31.95180133 1 48 C0.67 48 0.34 48 0 48 C0 38.43 0 28.86 0 19 C-3.63 19 -7.26 19 -11 19 C-9 17 -9 17 -6.8359375 16.8046875 C-4.55729167 16.86979167 -2.27864583 16.93489583 0 17 C0 11.39 0 5.78 0 0 Z " fill="#534051" transform="translate(164,22)"/>
<path d="M0 0 C0.66 0 1.32 0 2 0 C2.02187378 0.83978394 2.02187378 0.83978394 2.04418945 1.6965332 C2.11871352 4.23588137 2.21535581 6.77392078 2.3125 9.3125 C2.33505859 10.19357422 2.35761719 11.07464844 2.38085938 11.98242188 C2.41630859 12.82998047 2.45175781 13.67753906 2.48828125 14.55078125 C2.51446533 15.33106689 2.54064941 16.11135254 2.56762695 16.9152832 C2.82200209 19.10252267 2.82200209 19.10252267 4.53198242 20.52807617 C6 22 6 22 6 26 C5.34 26 4.68 26 4 26 C3.67 25.01 3.34 24.02 3 23 C1.35 22.67 -0.3 22.34 -2 22 C-1.505 20.515 -1.505 20.515 -1 19 C-0.85426942 17.52034074 -0.75336732 16.03596157 -0.68359375 14.55078125 C-0.64169922 13.70322266 -0.59980469 12.85566406 -0.55664062 11.98242188 C-0.49766602 10.66081055 -0.49766602 10.66081055 -0.4375 9.3125 C-0.39431641 8.41982422 -0.35113281 7.52714844 -0.30664062 6.60742188 C-0.20064647 4.40509892 -0.09857949 2.20266527 0 0 Z " fill="#1C172C" transform="translate(153,90)"/>
<path d="M0 0 C1.79296875 0.18359375 1.79296875 0.18359375 4 1 C7.05909544 4.91151754 9.83893646 9.47798074 10.16015625 14.5078125 C9.875 16.6875 9.875 16.6875 9 20 C8.67 20 8.34 20 8 20 C7.34 16.7 6.68 13.4 6 10 C5.34 10 4.68 10 4 10 C1.1605948 6.32547562 0 4.73113419 0 0 Z " fill="#401F31" transform="translate(188,87)"/>
<path d="M0 0 C10.26224738 -0.54011828 18.07596012 3.72196911 25.68359375 10.5 C26.82168434 11.63486654 27.91712594 12.81233168 29 14 C28.67 14.66 28.34 15.32 28 16 C27.47792969 15.48050781 26.95585937 14.96101563 26.41796875 14.42578125 C18.65169402 7.06754197 10.42656931 3.16400495 0 1 C0 0.67 0 0.34 0 0 Z " fill="#E05253" transform="translate(159,73)"/>
<path d="M0 0 C5.17741914 2.1180351 7.37209514 6.25431299 10 11 C10.9072414 13.3536923 11.47309426 15.52354305 12 18 C11.34 18 10.68 18 10 18 C9.61328125 17.26394531 9.2265625 16.52789062 8.828125 15.76953125 C6.18845505 10.82341701 3.61534162 6.31059962 0 2 C0 1.34 0 0.68 0 0 Z " fill="#E54C4C" transform="translate(180,86)"/>
<path d="M0 0 C0.66 0 1.32 0 2 0 C1.40364189 3.57814867 0.000066 5.54422861 -2.375 8.25 C-2.98085937 8.95640625 -3.58671875 9.6628125 -4.2109375 10.390625 C-6 12 -6 12 -9 12 C-8.34 10.68 -7.68 9.36 -7 8 C-6.34 8 -5.68 8 -5 8 C-4.731875 7.4225 -4.46375 6.845 -4.1875 6.25 C-2.97070811 3.94449957 -1.69666121 1.97943808 0 0 Z " fill="#322538" transform="translate(184,132)"/>
<path d="M0 0 C2.14965431 3.22448147 2.22152284 3.79930965 1.9765625 7.44921875 C1.925 8.29677734 1.8734375 9.14433594 1.8203125 10.01757812 C1.75585938 10.89865234 1.69140625 11.77972656 1.625 12.6875 C1.56828125 13.58017578 1.5115625 14.47285156 1.453125 15.39257812 C1.31173702 17.59587413 1.16034022 19.79801539 1 22 C0.67 22 0.34 22 0 22 C0 19.03 0 16.06 0 13 C-0.66 13 -1.32 13 -2 13 C-1.85851011 11.3954444 -1.71164314 9.79136233 -1.5625 8.1875 C-1.48128906 7.29417969 -1.40007812 6.40085937 -1.31640625 5.48046875 C-1 3 -1 3 0 0 Z " fill="#4C2E3F" transform="translate(110,99)"/>
<path d="M0 0 C0 3.88091967 -1.65317733 6.39673296 -3.5 9.6875 C-3.83386719 10.29400391 -4.16773437 10.90050781 -4.51171875 11.52539062 C-5.335537 13.02003231 -6.16703451 14.51043671 -7 16 C-7.33 16 -7.66 16 -8 16 C-7.62270085 9.96321355 -5.73910188 5.77579991 -2 1 C-1.34 0.67 -0.68 0.34 0 0 Z " fill="#261D32" transform="translate(119,86)"/>
<path d="M0 0 C2.44113749 1.20344654 4.68132309 2.56242032 7 4 C7 4.99 7 5.98 7 7 C5.24956851 6.20928784 3.49967222 5.41739082 1.75 4.625 C0.77546875 4.18414062 -0.1990625 3.74328125 -1.203125 3.2890625 C-3.49311839 2.23361862 -5.75366601 1.14456065 -8 0 C-5.01214315 -1.49392842 -3.21972436 -0.78974371 0 0 Z " fill="#312538" transform="translate(169,80)"/>
<path d="M0 0 C-0.33 0.66 -0.66 1.32 -1 2 C-5.44500224 3.33350067 -9.3318831 4.29175731 -14 4 C-14 3.01 -14 2.02 -14 1 C-12.23103898 0.63659714 -10.45973374 0.28459117 -8.6875 -0.0625 C-7.70136719 -0.25972656 -6.71523437 -0.45695313 -5.69921875 -0.66015625 C-3 -1 -3 -1 0 0 Z " fill="#FBDFDF" transform="translate(167,153)"/>
<path d="M0 0 C7.60433351 -0.66124639 13.86504053 1.86822756 20.125 6.125 C22 8 22 8 22 10 C19.52619541 8.8125738 17.26383311 7.53426177 14.9375 6.0625 C10.29453419 3.35579285 5.18897797 2.23859872 0 1 C0 0.67 0 0.34 0 0 Z " fill="#D03E41" transform="translate(158,77)"/>
<path d="M0 0 C1.10228696 4.40914783 1.07654536 8.48382401 1 13 C0.01 13 -0.98 13 -2 13 C-2.33 9.04 -2.66 5.08 -3 1 C-1 0 -1 0 0 0 Z " fill="#FAD8D9" transform="translate(195,104)"/>
<path d="M0 0 C2.76223278 2.76223278 2.57856291 5.20706617 3 9 C2.67 9 2.34 9 2 9 C1.67 10.65 1.34 12.3 1 14 C-1.64 14 -4.28 14 -7 14 C-7 13.67 -7 13.34 -7 13 C-4.69 13 -2.38 13 0 13 C-0.08378906 12.22914062 -0.16757813 11.45828125 -0.25390625 10.6640625 C-0.35574219 9.66117188 -0.45757812 8.65828125 -0.5625 7.625 C-0.66691406 6.62726563 -0.77132812 5.62953125 -0.87890625 4.6015625 C-1 2 -1 2 0 0 Z " fill="#5D4A5A" transform="translate(188,100)"/>
<path d="M0 0 C0.66 0 1.32 0 2 0 C2.93619813 3.15506142 3.1057123 5.96586502 3.0625 9.25 C3.05347656 10.14203125 3.04445312 11.0340625 3.03515625 11.953125 C3.02355469 12.62859375 3.01195312 13.3040625 3 14 C2.01 14.495 2.01 14.495 1 15 C0.15318867 9.91913204 -0.09038099 5.15171623 0 0 Z " fill="#16132A" transform="translate(197,103)"/>
<path d="M0 0 C0.33 0 0.66 0 1 0 C1.33 2.97 1.66 5.94 2 9 C2.33 9 2.66 9 3 9 C3 11.64 3 14.28 3 17 C1.68 16.67 0.36 16.34 -1 16 C-0.67 10.72 -0.34 5.44 0 0 Z " fill="#EC6464" transform="translate(161,22)"/>
<path d="M0 0 C0.99 0.33 1.98 0.66 3 1 C1.54540569 2.64913882 0.08620743 4.29421782 -1.375 5.9375 C-2.18710938 6.85402344 -2.99921875 7.77054688 -3.8359375 8.71484375 C-6 11 -6 11 -8 12 C-7.41463247 8.33939179 -5.916761 6.45464836 -3.4375 3.75 C-2.79683594 3.04359375 -2.15617188 2.3371875 -1.49609375 1.609375 C-0.75552734 0.81273437 -0.75552734 0.81273437 0 0 Z " fill="#E64849" transform="translate(185,135)"/>
<path d="M0 0 C1.77503906 0.03480469 1.77503906 0.03480469 3.5859375 0.0703125 C5.36871094 0.09738281 5.36871094 0.09738281 7.1875 0.125 C8.10273438 0.14820312 9.01796875 0.17140625 9.9609375 0.1953125 C9.9609375 1.1853125 9.9609375 2.1753125 9.9609375 3.1953125 C5.0109375 2.8653125 0.0609375 2.5353125 -5.0390625 2.1953125 C-3.0390625 0.1953125 -3.0390625 0.1953125 0 0 Z " fill="#251F34" transform="translate(152.0390625,68.8046875)"/>
<path d="M0 0 C1.65 0 3.3 0 5 0 C5.33 1.32 5.66 2.64 6 4 C4.125 5.0625 4.125 5.0625 2 6 C1.34 5.67 0.68 5.34 0 5 C0 3.35 0 1.7 0 0 Z " fill="#D53A3C" transform="translate(151,112)"/>
<path d="M0 0 C0.33 0.99 0.66 1.98 1 3 C0.071875 3.763125 -0.85625 4.52625 -1.8125 5.3125 C-3.98276101 7.11848552 -6.05568065 8.9476629 -8 11 C-8 7 -8 7 -6.25 5.078125 C-5.5075 4.47484375 -4.765 3.8715625 -4 3.25 C-3.2575 2.63640625 -2.515 2.0228125 -1.75 1.390625 C-1.1725 0.93171875 -0.595 0.4728125 0 0 Z " fill="#271C30" transform="translate(132,84)"/>
<path d="M0 0 C0.99 0.66 1.98 1.32 3 2 C2.4409112 5.24271506 1.5867822 6.93057424 -1 9 C-1.66 9 -2.32 9 -3 9 C-2.01 6.03 -1.02 3.06 0 0 Z " fill="#682B39" transform="translate(195,125)"/>
<path d="M0 0 C0.33 0.66 0.66 1.32 1 2 C0.00390625 3.9453125 0.00390625 3.9453125 -1.4375 6.125 C-1.91058594 6.84945312 -2.38367188 7.57390625 -2.87109375 8.3203125 C-3.24363281 8.87460938 -3.61617187 9.42890625 -4 10 C-4.66 9.34 -5.32 8.68 -6 8 C-4.73058503 4.08597051 -3.48832306 2.20927127 0 0 Z " fill="#1C142A" transform="translate(196,131)"/>
<path d="M0 0 C4.07763771 2.86536704 6.02677065 5.43041625 8 10 C7.01 10 6.02 10 5 10 C3.39453125 8.03125 3.39453125 8.03125 1.8125 5.5 C1.28269531 4.6646875 0.75289062 3.829375 0.20703125 2.96875 C-0.19128906 2.3190625 -0.58960938 1.669375 -1 1 C-0.67 0.67 -0.34 0.34 0 0 Z " fill="#FDF6F6" transform="translate(183,85)"/>
<path d="M0 0 C3 1 3 1 4.16796875 2.84765625 C4.50441406 3.57855469 4.84085937 4.30945313 5.1875 5.0625 C5.53167969 5.79597656 5.87585938 6.52945313 6.23046875 7.28515625 C6.48441406 7.85105469 6.73835938 8.41695312 7 9 C3.21875 8.296875 3.21875 8.296875 1.25 5.625 C0 3 0 3 0 0 Z " fill="#312639" transform="translate(120,129)"/>
</svg>
